<svg id="Layer_1" data-name="Layer 1" xmlns="http://www.w3.org/2000/svg" viewBox="0 0 336.07 38.9"><defs><style>.cls-1{fill:gray;}</style></defs><title>TransparencyCentral_Logo_SVG</title><path class="cls-1" d="M54.1,13.56a19.33,19.33,0,0,0-10.26,2.94,19.45,19.45,0,1,0,0,33A19.45,19.45,0,1,0,54.1,13.56Zm0,34.75a15.2,15.2,0,0,1-6.75-1.57,19.65,19.65,0,0,0,1.88-2.18,12.55,12.55,0,1,0-3.5-20.83h0a12.61,12.61,0,0,0-1.88,2.12A12.43,12.43,0,0,0,43,27.28q-0.19.37-.36,0.76l-0.16.39q-0.15.39-.28,0.8a12.48,12.48,0,0,0-.47,2.1q-0.06.43-.09,0.88,0,0.14,0,.29H46c0-.1,0-0.19,0-0.29s0-.21,0-0.31,0.07-.41.11-0.62,0.1-.4.16-0.6,0.13-.39.2-0.58l0.12-.28q0.12-.28.26-0.55a8.11,8.11,0,0,1,4.53-3.9,8.07,8.07,0,1,1,0,15.25h0q0.14-.33.27-0.66,0.26-.66.46-1.35,0.1-.34.19-0.69a5.22,5.22,0,1,0-3.49-5.44h3.78A1.53,1.53,0,0,1,53,32v0a1.53,1.53,0,1,1,.36,2.36h0l-0.12-.08,0,0-0.09-.07,0,0L53,34.07l0,0v0a1.53,1.53,0,0,1-.32-0.53H48.87c0,0.06,0,.12,0,0.18q0,0.68-.12,1.35A15.18,15.18,0,0,1,48.36,37q-0.17.63-.39,1.25h0a15.3,15.3,0,1,1-7.63-18.95,19.6,19.6,0,0,0-1.88,2.18A12.55,12.55,0,1,0,42,42.3a12.61,12.61,0,0,0,1.88-2.12A12.42,12.42,0,0,0,46,34.68q0.06-.43.09-0.88c0-.09,0-0.19,0-0.29H41.64q0,0.14,0,.29,0,0.32-.09.62a8,8,0,0,1-.22.9,8.09,8.09,0,1,1-5.11-9.95h0a19.25,19.25,0,0,0-.92,2.69,5.22,5.22,0,1,0,0,9.86l0.38-.15a5.23,5.23,0,0,0,.71-0.38l0.33-.23,0.16-.12a5.26,5.26,0,0,0,1.28-1.51,5.18,5.18,0,0,0,.47-1.11q0.06-.2.1-0.4l0-.2c0-.11,0-0.22,0-0.33H35a1.53,1.53,0,0,1-.32.53v0l0,0-0.07.07,0,0-0.09.07,0,0-0.12.08h0A1.52,1.52,0,1,1,34.68,32h0v0a1.53,1.53,0,0,1,.32.53h3.82A15.13,15.13,0,0,1,42,23.72a15.31,15.31,0,0,1,5.4-4.44A15.29,15.29,0,1,1,54.1,48.31Z" transform="translate(-14.13 -13.56)"/><path class="cls-1" d="M90.84,23.53H85V20.69H100.1v2.84H94.29V45.9H90.84V23.53Z" transform="translate(-14.13 -13.56)"/><path class="cls-1" d="M103.19,28.35h3.27v2.11l0.45-.63A4.62,4.62,0,0,1,110.53,28v3.27a3.91,3.91,0,0,0-3.17,1.1,6.27,6.27,0,0,0-.9,3.89V45.9h-3.27V28.35Z" transform="translate(-14.13 -13.56)"/><path class="cls-1" d="M117.19,46.27a3.69,3.69,0,0,1-3-1.27,5.72,5.72,0,0,1-1-3.7v0q0-3.48,1.7-4.85t6-1.37h0.41V33a2.91,2.91,0,0,0-.56-1.92,2,2,0,0,0-1.62-.67,2.06,2.06,0,0,0-1.71.75,3.36,3.36,0,0,0-.6,2.14h-3.23a5.05,5.05,0,0,1,1.38-3.94A5.62,5.62,0,0,1,119,28a5.82,5.82,0,0,1,4.18,1.29,5.45,5.45,0,0,1,1.32,4.06V45.9h-3.27V44.07a2.52,2.52,0,0,1-.3.59A4.13,4.13,0,0,1,117.19,46.27Zm4-8.72h-0.71a4.42,4.42,0,0,0-3,.94,3.47,3.47,0,0,0-1,2.72v0a3.38,3.38,0,0,0,.46,2,1.81,1.81,0,0,0,1.54.61,2.36,2.36,0,0,0,2.16-1.18,6.34,6.34,0,0,0,.64-3.45V37.55Z" transform="translate(-14.13 -13.56)"/><path class="cls-1" d="M128,28.35h3.27V29.8l0.07-.07A5.15,5.15,0,0,1,135.26,28a3.83,3.83,0,0,1,4.22,4.22V45.9h-3.2V33.3a3.37,3.37,0,0,0-.58-2.13,2,2,0,0,0-1.71-.73,2.31,2.31,0,0,0-2,.93,5.07,5.07,0,0,0-.65,2.88V45.9H128V28.35Z" transform="translate(-14.13 -13.56)"/><path class="cls-1" d="M149.81,33.44V32.93a3,3,0,0,0-.39-1.88,1.7,1.7,0,0,0-1.46-.6,2,2,0,0,0-1.39.44,1.72,1.72,0,0,0-.46,1.31,2.25,2.25,0,0,0,.46,1.46,13.18,13.18,0,0,0,2.16,1.75,19.76,19.76,0,0,1,3.66,3.07,4.09,4.09,0,0,1,.91,2.63,5,5,0,0,1-1.42,3.82,5.64,5.64,0,0,1-4,1.34,5.81,5.81,0,0,1-4.16-1.3,4.65,4.65,0,0,1-1.29-3.61V40.54h3.22v0.52a3,3,0,0,0,.49,2.06,2.12,2.12,0,0,0,1.74.69,2.33,2.33,0,0,0,1.68-.54,2.14,2.14,0,0,0,.55-1.61,2.56,2.56,0,0,0-.63-1.7A13.91,13.91,0,0,0,147,37.91a15.36,15.36,0,0,1-3.26-2.8,4.17,4.17,0,0,1-.82-2.59,4.27,4.27,0,0,1,1.32-3.36,6.84,6.84,0,0,1,7.68,0A4.49,4.49,0,0,1,153,32.59v0.86h-3.22Z" transform="translate(-14.13 -13.56)"/><path class="cls-1" d="M156.48,28.35h3.27v1.93l0,0A4.78,4.78,0,0,1,163.62,28a3.74,3.74,0,0,1,3.21,1.43,7.16,7.16,0,0,1,1.06,4.29v6.5a7.77,7.77,0,0,1-1.09,4.62,4,4,0,0,1-3.45,1.46,4.08,4.08,0,0,1-3.43-1.39l-0.18-.23v7.81h-3.27V28.35Zm5.84,15.45a1.9,1.9,0,0,0,1.73-1,5.53,5.53,0,0,0,.59-2.83V33.5a3.72,3.72,0,0,0-.57-2.27,2,2,0,0,0-1.73-.75,2.2,2.2,0,0,0-2,1,5.37,5.37,0,0,0-.62,3v6a4.14,4.14,0,0,0,.63,2.53A2.3,2.3,0,0,0,162.32,43.81Z" transform="translate(-14.13 -13.56)"/><path class="cls-1" d="M175.22,46.27a3.69,3.69,0,0,1-3-1.27,5.72,5.72,0,0,1-1-3.7v0q0-3.48,1.7-4.85t6-1.37h0.41V33a2.91,2.91,0,0,0-.56-1.92,2,2,0,0,0-1.62-.67,2.06,2.06,0,0,0-1.71.75,3.36,3.36,0,0,0-.6,2.14h-3.23a5.05,5.05,0,0,1,1.38-3.94A5.62,5.62,0,0,1,177,28a5.82,5.82,0,0,1,4.18,1.29,5.45,5.45,0,0,1,1.32,4.06V45.9h-3.27V44.07a2.52,2.52,0,0,1-.3.59A4.13,4.13,0,0,1,175.22,46.27Zm4-8.72h-0.71a4.42,4.42,0,0,0-3,.94,3.47,3.47,0,0,0-1,2.72v0a3.38,3.38,0,0,0,.46,2,1.81,1.81,0,0,0,1.54.61,2.36,2.36,0,0,0,2.16-1.18,6.34,6.34,0,0,0,.64-3.45V37.55Z" transform="translate(-14.13 -13.56)"/><path class="cls-1" d="M186.17,28.35h3.27v2.11l0.45-.63A4.62,4.62,0,0,1,193.51,28v3.27a3.91,3.91,0,0,0-3.17,1.1,6.27,6.27,0,0,0-.9,3.89V45.9h-3.27V28.35Z" transform="translate(-14.13 -13.56)"/><path class="cls-1" d="M201.57,46.27q-3.16,0-4.45-1.53t-1.29-5.24V34.39a7.11,7.11,0,0,1,1.4-4.84A5.52,5.52,0,0,1,201.57,28a5.61,5.61,0,0,1,4.37,1.54q1.38,1.54,1.38,4.88v3.88H199.1v1.29a7.87,7.87,0,0,0,.48,3.42,2.1,2.1,0,0,0,2,.83,2.44,2.44,0,0,0,1.88-.65,2.73,2.73,0,0,0,.54-2V40.63h3.27v0.52A4.62,4.62,0,0,1,206,45,6.49,6.49,0,0,1,201.57,46.27Zm2.48-10.43V34.44a6.44,6.44,0,0,0-.54-3.14,2.11,2.11,0,0,0-1.95-.86,2,2,0,0,0-1.88.94,6.07,6.07,0,0,0-.58,3.06v1.39h4.95Z" transform="translate(-14.13 -13.56)"/><path class="cls-1" d="M210.34,28.35h3.27V29.8l0.07-.07A5.15,5.15,0,0,1,217.56,28a3.83,3.83,0,0,1,4.22,4.22V45.9h-3.2V33.3a3.37,3.37,0,0,0-.58-2.13,2,2,0,0,0-1.71-.73,2.31,2.31,0,0,0-2,.93,5.07,5.07,0,0,0-.65,2.88V45.9h-3.27V28.35Z" transform="translate(-14.13 -13.56)"/><path class="cls-1" d="M236.12,40.38v0.52A5.31,5.31,0,0,1,234.9,45a7.09,7.09,0,0,1-8.37-.11,6.38,6.38,0,0,1-1.35-4.51V34.5q0-3.52,1.29-5t4.32-1.5a5.34,5.34,0,0,1,4,1.27,5.11,5.11,0,0,1,1.14,3.64v0.89h-3.27V33.26a3.6,3.6,0,0,0-.38-2.15,1.67,1.67,0,0,0-1.49-.67,2,2,0,0,0-1.8.74,4.89,4.89,0,0,0-.51,2.62v6.4a5.78,5.78,0,0,0,.48,2.83,1.92,1.92,0,0,0,1.77.77,2,2,0,0,0,1.69-.71,3.43,3.43,0,0,0,.46-2.2V40.38h3.27Z" transform="translate(-14.13 -13.56)"/><path class="cls-1" d="M244.76,52.38h-3l1.83-6.16v0l-4.83-17.9h3.33l3,13h0l3.16-13h3.11Z" transform="translate(-14.13 -13.56)"/><path class="cls-1" d="M269.81,37.32v0.75q0.07,4.43-1.64,6.32t-5.81,1.88q-4.34,0-6.12-2t-1.78-7V29.42q0-5,1.78-7.07t6.12-2q3.77,0,5.59,1.91a7.33,7.33,0,0,1,1.7,5.31v1.23h-5.13V28a6,6,0,0,0-.51-2.94,1.78,1.78,0,0,0-1.65-1,2.23,2.23,0,0,0-2.09,1.12,7.65,7.65,0,0,0-.64,3.64v7.77a12.05,12.05,0,0,0,.6,4.57,2.16,2.16,0,0,0,2.13,1.29,1.89,1.89,0,0,0,1.78-1.1,7.09,7.09,0,0,0,.54-3.31V37.32h5.13Z" transform="translate(-14.13 -13.56)"/><path class="cls-1" d="M278.72,46.27q-3.22,0-4.64-1.61t-1.43-5.25V35.95q0-4.38,1.46-6.17t5-1.8q3.75,0,5.11,1.55t1.36,5.86v2.55h-8.34v0.54a14,14,0,0,0,.37,4,1.45,1.45,0,0,0,1.51,1,1.63,1.63,0,0,0,1.52-.71,4.39,4.39,0,0,0,.36-2.35V39.93h4.59v0.52a5.27,5.27,0,0,1-1.66,4.37A7.88,7.88,0,0,1,278.72,46.27Zm2.27-11v-1a6.71,6.71,0,0,0-.39-2.8,1.52,1.52,0,0,0-1.48-.74,1.47,1.47,0,0,0-1.48.89,9.63,9.63,0,0,0-.39,3.38v0.25H281Z" transform="translate(-14.13 -13.56)"/><path class="cls-1" d="M288.82,28.35h4.63V30a5,5,0,0,1,4.31-2,3.68,3.68,0,0,1,3,1.15,5.25,5.25,0,0,1,1,3.47V45.9h-4.63V33.14a2.5,2.5,0,0,0-.38-1.55,1.49,1.49,0,0,0-1.24-.48,1.65,1.65,0,0,0-1.62.91,7.15,7.15,0,0,0-.38,3.14V45.9h-4.63V28.35Z" transform="translate(-14.13 -13.56)"/><path class="cls-1" d="M314.36,46.06a20,20,0,0,1-3.09.21A4.09,4.09,0,0,1,308,45a5.89,5.89,0,0,1-1.11-3.89V31.46H304.4V28.35h2.47v-2.8l4.63-1.91v4.72h2.88v3.11h-2.88v9.63a3.36,3.36,0,0,0,.27,1.66,1.34,1.34,0,0,0,1.16.39,11.24,11.24,0,0,0,1.45-.13v3Z" transform="translate(-14.13 -13.56)"/><path class="cls-1" d="M317.22,28.35h4.41v2.27a6.84,6.84,0,0,1,.54-0.88A5.45,5.45,0,0,1,326.35,28v3.93a4.41,4.41,0,0,0-1-.07,3.39,3.39,0,0,0-2.79,1,5.29,5.29,0,0,0-.71,3.39V45.9h-4.63V28.35Z" transform="translate(-14.13 -13.56)"/><path class="cls-1" d="M332.91,46.27A4,4,0,0,1,329.77,45a4.85,4.85,0,0,1-1.13-3.41V40.55q0-3.13,1.54-4.4t5.31-1.28h1.41V32.73a2.5,2.5,0,0,0-.37-1.48,1.27,1.27,0,0,0-1.1-.5,1.61,1.61,0,0,0-1.34.54,2.34,2.34,0,0,0-.38,1.61v0.52h-4.63V32.89a4.39,4.39,0,0,1,1.46-3.73A7.69,7.69,0,0,1,335.3,28,7.06,7.06,0,0,1,340,29.29a5.07,5.07,0,0,1,1.53,4.06V45.9H337V44.45l-0.2.23A4.79,4.79,0,0,1,332.91,46.27Zm4-8.66h-0.61a3.17,3.17,0,0,0-2.32.7,3.41,3.41,0,0,0-.68,2.41v1.07a1.82,1.82,0,0,0,.43,1.29,1.52,1.52,0,0,0,1.18.46,1.62,1.62,0,0,0,1.5-.88,5.49,5.49,0,0,0,.5-2.63V37.61Z" transform="translate(-14.13 -13.56)"/><path class="cls-1" d="M345.57,20.69h4.63V45.9h-4.63V20.69Z" transform="translate(-14.13 -13.56)"/></svg>